# Blender v3.0.0 OBJ File: ''
# www.blender.org
mtllib AllStage1.mtl
o HelperObjective1.001
v -4.910267 0.125000 -1.406250
v -5.066517 0.125000 -1.562500
v -4.910267 0.125000 2.031250
v -2.254017 0.125000 2.187500
v -2.410267 0.125000 2.031250
v -2.254017 0.125000 -1.562500
v -2.410267 0.125000 -1.406250
v -2.097767 0.125000 -1.406250
v -2.097767 0.125000 2.031250
v 0.558483 0.125000 2.187500
v 0.402233 0.125000 2.031250
v 0.558483 0.125000 -1.562500
v 0.402233 0.125000 -1.406250
v 0.558483 0.125000 -2.187500
v 0.714733 0.125000 -1.406250
v 0.714733 0.125000 2.031250
v 3.370983 0.125000 2.187500
v 3.214733 0.125000 2.031250
v 3.370983 0.125000 -1.562500
v 3.214733 0.125000 -1.406250
v 3.370983 0.125000 -2.187500
v 3.527233 0.125000 -1.406250
v 3.527233 0.125000 2.031250
v 6.183483 0.125000 2.187500
v 6.027233 0.125000 2.031250
v 6.183483 0.125000 -1.562500
v 6.027233 0.125000 -1.406250
v 6.183483 0.125000 -2.187500
v 6.339733 0.125000 -1.406250
v 6.339733 0.125000 2.031250
v 8.995983 0.125000 2.187500
v 8.839733 0.125000 2.031250
v 8.839733 0.125000 -1.406250
v -6.183483 0.125000 -1.562500
v -6.183483 0.125000 2.187500
v -6.183483 0.125000 -2.187500
v -8.839733 0.125000 -1.406250
v -8.995983 0.125000 -1.562500
v -8.995983 0.125000 2.187500
v -8.839733 0.125000 2.031250
v -6.339733 0.125000 2.031250
v -6.339733 0.125000 -1.406250
v -8.995983 0.125000 -2.187500
v -5.066517 -0.125000 -1.562500
v -2.254017 -0.125000 -1.562500
v 0.558483 -0.125000 -2.187500
v 0.558483 -0.125000 -1.562500
v 3.370983 -0.125000 -2.187500
v 3.370983 -0.125000 -1.562500
v 6.183483 -0.125000 -2.187500
v 6.183483 -0.125000 -1.562500
v -5.066517 -0.125000 2.187500
v -6.183483 -0.125000 2.187500
v -6.183483 -0.125000 -1.562500
v -8.995983 -0.125000 -1.562500
v -2.254017 -0.125000 -2.187500
v -5.066517 -0.125000 -2.187500
v -5.066517 0.125000 -2.187500
v -2.254017 0.125000 -2.187500
v 8.995983 -0.125000 2.187500
v 8.995983 -0.125000 -1.562500
v 8.995983 0.125000 -1.562500
v 8.995983 -0.125000 -2.187500
v 8.995983 0.125000 -2.187500
v -6.183483 -0.125000 -2.187500
v -8.995983 -0.125000 -2.187500
v -2.254017 -0.125000 2.187500
v 0.558483 -0.125000 2.187500
v 3.370983 -0.125000 2.187500
v 6.183483 -0.125000 2.187500
v -8.995983 -0.125000 2.187500
v -2.254017 0.124999 6.562500
v -2.410267 0.124999 6.406250
v -5.066517 0.125000 2.812500
v -4.910267 0.125000 2.968750
v -5.066517 0.125000 2.187500
v -2.410267 0.125000 2.968750
v -2.254017 0.125000 2.812500
v -2.097767 0.125000 2.968750
v -2.097767 0.124999 6.406250
v 0.558483 0.124999 6.562500
v 0.402233 0.124999 6.406250
v 0.558483 0.125000 2.812500
v 0.402233 0.125000 2.968750
v 0.714733 0.125000 2.968750
v 0.714733 0.124999 6.406250
v 3.370983 0.124999 6.562500
v 3.214733 0.124999 6.406250
v 3.370983 0.125000 2.812500
v 3.214733 0.125000 2.968750
v 3.527233 0.125000 2.968750
v 3.527233 0.124999 6.406250
v 6.183483 0.124999 6.562500
v 6.027233 0.124999 6.406250
v 6.183483 0.125000 2.812500
v 6.027233 0.125000 2.968750
v 6.339733 0.125000 2.968750
v 6.339733 0.124999 6.406250
v 8.995983 0.124999 6.562500
v 8.839733 0.124999 6.406250
v 8.839733 0.125000 2.968750
v -5.066517 -0.125000 2.812500
v -2.254017 -0.125000 2.812500
v 0.558483 -0.125000 2.812500
v 3.370983 -0.125000 2.812500
v 6.183483 -0.125000 2.812500
v -5.066517 -0.125001 6.562500
v 8.995983 -0.125001 6.562500
v 8.995983 -0.125000 2.812500
v 8.995983 0.125000 2.812500
v -2.254017 -0.125001 6.562500
v 0.558483 -0.125001 6.562500
v 3.370983 -0.125001 6.562500
v 6.183483 -0.125001 6.562500
v -4.910267 0.124999 6.406250
v -5.066517 0.124999 6.562500
vt 0.015625 0.031250
vt 0.015625 0.031250
vt 0.015625 0.031250
vt 0.015625 0.031250
vt 0.015625 0.031250
vt 0.015625 0.031250
vt 0.015625 0.031250
vt 0.015625 0.031250
vt 0.015625 0.031250
vt 0.015625 0.031250
vt 0.015625 0.031250
vt 0.389173 0.585316
vt 0.259526 0.585316
vt 0.259526 0.527695
vt 0.389173 0.527695
vt 0.015625 0.031250
vt 0.015625 0.031250
vt 0.015625 0.031250
vt 0.015625 0.031250
vt 0.015625 0.031250
vt 0.015625 0.031250
vt 0.518820 0.585316
vt 0.518820 0.527695
vt 0.015625 0.031250
vt 0.015625 0.031250
vt 0.015625 0.031250
vt 0.015625 0.031250
vt 0.015625 0.031250
vt 0.015625 0.031250
vt 0.648467 0.585316
vt 0.648467 0.527695
vt 0.015625 0.031250
vt 0.015625 0.031250
vt 0.015625 0.031250
vt 0.015625 0.031250
vt 0.015625 0.031250
vt 0.015625 0.031250
vt 0.778114 0.585316
vt 0.778114 0.527695
vt 0.015625 0.031250
vt 0.015625 0.031250
vt 0.015625 0.031250
vt 0.015625 0.031250
vt 0.907760 0.585316
vt 0.907760 0.527695
vt 0.015625 0.031250
vt 0.015625 0.031250
vt 0.015625 0.031250
vt 0.015625 0.031250
vt 0.015625 0.031250
vt 0.015625 0.031250
vt 0.015625 0.031250
vt 0.015625 0.031250
vt 0.015625 0.031250
vt 0.015625 0.031250
vt 0.015625 0.031250
vt 0.015625 0.031250
vt 0.015625 0.031250
vt 0.389173 0.470074
vt 0.259526 0.470074
vt 0.259526 0.412454
vt 0.389173 0.412454
vt 0.754879 0.960316
vt 0.754879 0.643401
vt 0.870121 0.643401
vt 0.870121 0.960316
vt 0.754879 0.960316
vt 0.754879 0.643401
vt 0.870121 0.643401
vt 0.870121 0.960316
vt 0.754879 0.960316
vt 0.754879 0.643401
vt 0.870121 0.643401
vt 0.870121 0.960316
vt 0.754879 0.960316
vt 0.754879 0.643401
vt 0.870121 0.643401
vt 0.870121 0.960316
vt 0.754879 0.960316
vt 0.754879 0.643401
vt 0.870121 0.643401
vt 0.870121 0.960316
vt 0.629879 0.960316
vt 0.629879 0.643401
vt 0.745121 0.643401
vt 0.745121 0.960316
vt 0.015625 0.031250
vt 0.015625 0.031250
vt 0.015625 0.031250
vt 0.015625 0.031250
vt 0.015625 0.031250
vt 0.015625 0.031250
vt 0.015625 0.031250
vt 0.015625 0.031250
vt 0.015625 0.031250
vt 0.015625 0.031250
vt 0.015625 0.031250
vt 0.015625 0.031250
vt 0.015625 0.031250
vt 0.015625 0.031250
vt 0.015625 0.031250
vt 0.015625 0.031250
vt 0.015625 0.031250
vt 0.015625 0.031250
vt 0.015625 0.031250
vt 0.015625 0.031250
vt 0.015625 0.031250
vt 0.015625 0.031250
vt 0.015625 0.031250
vt 0.015625 0.031250
vt 0.015625 0.031250
vt 0.015625 0.031250
vt 0.015625 0.031250
vt 0.015625 0.031250
vt 0.389173 0.522816
vt 0.259526 0.522816
vt 0.259526 0.465195
vt 0.015625 0.031250
vt 0.000000 0.000000
vt 0.015625 0.031250
vt 0.015625 0.031250
vt 0.389173 0.465195
vt 0.015625 0.031250
vt 0.015625 0.031250
vt 0.015625 0.031250
vt 0.015625 0.031250
vt 0.015625 0.031250
vt 0.015625 0.031250
vt 0.015625 0.031250
vt 0.518820 0.522816
vt 0.518820 0.465195
vt 0.015625 0.031250
vt 0.015625 0.031250
vt 0.015625 0.031250
vt 0.015625 0.031250
vt 0.015625 0.031250
vt 0.015625 0.031250
vt 0.648467 0.522816
vt 0.648467 0.465195
vt 0.015625 0.031250
vt 0.015625 0.031250
vt 0.015625 0.031250
vt 0.000000 0.000000
vt 0.015625 0.031250
vt 0.015625 0.031250
vt 0.015625 0.031250
vt 0.015625 0.031250
vt 0.015625 0.031250
vt 0.015625 0.031250
vt 0.000000 0.000000
vt 0.015625 0.031250
vt 0.015625 0.031250
vt 0.015625 0.031250
vt 0.015625 0.031250
vt 0.015625 0.031250
vt 0.754879 0.960316
vt 0.754879 0.643401
vt 0.870121 0.643401
vt 0.870121 0.960316
vt 0.754879 0.960316
vt 0.754879 0.643401
vt 0.870121 0.643401
vt 0.870121 0.960316
vt 0.754879 0.960316
vt 0.754879 0.643401
vt 0.870121 0.643401
vt 0.870121 0.960316
vt 0.754879 0.960316
vt 0.754879 0.643401
vt 0.870121 0.643401
vt 0.870121 0.960316
vt 0.754879 0.960316
vt 0.754879 0.643401
vt 0.870121 0.643401
vt 0.870121 0.960316
vt 0.000000 0.000000
vt 0.015625 0.031250
vt 0.015625 0.031250
vt 0.015625 0.031250
vt 0.015625 0.031250
vt 0.015625 0.031250
vt 0.015625 0.031250
vt 0.015625 0.031250
vt 0.015625 0.031250
vt 0.015625 0.031250
vt 0.015625 0.031250
vt 0.015625 0.031250
vt 0.015625 0.031250
vt 0.778114 0.522816
vt 0.778114 0.465195
vt 0.907761 0.522816
vt 0.907761 0.465195
vt 0.000000 0.000000
vn 0.0000 1.0000 0.0000
vn 0.0000 -1.0000 -0.0000
vn -1.0000 0.0000 0.0000
vn 0.0000 0.0000 -1.0000
vn 1.0000 0.0000 0.0000
vn 0.0000 0.0000 1.0000
usemtl Material__26.001
s off
f 1/1/1 2/2/1 76/3/1
f 76/3/1 3/4/1 1/1/1
f 75/5/1 74/6/1 116/7/1
f 4/8/1 5/9/1 3/4/1
f 5/9/1 4/8/1 6/10/1
f 6/10/1 7/11/1 5/9/1
f 7/11/1 6/10/1 2/2/1
f 2/2/1 1/1/1 7/11/1
f 59/12/1 58/13/1 2/14/1
f 2/14/1 6/15/1 59/12/1
f 8/16/1 6/10/1 4/8/1
f 4/8/1 9/17/1 8/16/1
f 10/18/1 11/19/1 9/17/1
f 11/19/1 10/18/1 12/20/1
f 12/20/1 13/21/1 11/19/1
f 13/21/1 12/20/1 6/10/1
f 6/10/1 8/16/1 13/21/1
f 14/22/1 59/12/1 6/15/1
f 6/15/1 12/23/1 14/22/1
f 15/24/1 12/20/1 10/18/1
f 10/18/1 16/25/1 15/24/1
f 9/17/1 4/8/1 10/18/1
f 17/26/1 18/27/1 16/25/1
f 18/27/1 17/26/1 19/28/1
f 19/28/1 20/29/1 18/27/1
f 20/29/1 19/28/1 12/20/1
f 12/20/1 15/24/1 20/29/1
f 21/30/1 14/22/1 12/23/1
f 12/23/1 19/31/1 21/30/1
f 22/32/1 19/28/1 17/26/1
f 17/26/1 23/33/1 22/32/1
f 74/6/1 75/5/1 77/34/1
f 26/35/1 27/36/1 25/37/1
f 27/36/1 26/35/1 19/28/1
f 19/28/1 22/32/1 27/36/1
f 28/38/1 21/30/1 19/31/1
f 19/31/1 26/39/1 28/38/1
f 62/40/1 33/41/1 32/42/1
f 33/41/1 62/40/1 26/35/1
f 26/35/1 29/43/1 33/41/1
f 64/44/1 28/38/1 26/39/1
f 26/39/1 62/45/1 64/44/1
f 34/46/1 35/47/1 76/3/1
f 76/3/1 2/2/1 34/46/1
f 36/48/1 34/46/1 2/2/1
f 2/2/1 58/49/1 36/48/1
f 55/50/2 54/51/2 71/52/2
f 38/53/3 55/50/3 39/54/3
f 35/47/1 41/55/1 40/56/1
f 41/55/1 35/47/1 34/46/1
f 34/46/1 42/57/1 41/55/1
f 42/57/1 34/46/1 38/53/1
f 38/53/1 37/58/1 42/57/1
f 36/59/1 43/60/1 38/61/1
f 38/61/1 34/62/1 36/59/1
f 1/63/1 3/64/1 5/65/1
f 5/65/1 7/66/1 1/63/1
f 8/67/1 9/68/1 11/69/1
f 11/69/1 13/70/1 8/67/1
f 15/71/1 16/72/1 18/73/1
f 18/73/1 20/74/1 15/71/1
f 22/75/1 23/76/1 25/77/1
f 25/77/1 27/78/1 22/75/1
f 29/79/1 30/80/1 32/81/1
f 32/81/1 33/82/1 29/79/1
f 37/83/1 40/84/1 41/85/1
f 41/85/1 42/86/1 37/83/1
f 44/87/2 57/88/2 56/89/2
f 56/89/2 45/90/2 44/87/2
f 45/90/2 56/89/2 46/91/2
f 46/91/2 47/92/2 45/90/2
f 47/92/2 46/91/2 48/93/2
f 48/93/2 49/94/2 47/92/2
f 49/94/2 48/93/2 50/95/2
f 50/95/2 51/96/2 49/94/2
f 51/96/2 50/95/2 63/97/2
f 63/97/2 61/98/2 51/96/2
f 52/99/2 53/100/2 54/51/2
f 54/51/2 44/87/2 52/99/2
f 44/87/2 54/51/2 65/101/2
f 65/101/2 57/88/2 44/87/2
f 55/50/2 66/102/2 65/101/2
f 65/101/2 54/51/2 55/50/2
f 56/89/4 57/88/4 58/49/4
f 58/49/4 59/103/4 56/89/4
f 46/91/4 56/89/4 59/103/4
f 59/103/4 14/104/4 46/91/4
f 48/93/4 46/91/4 14/104/4
f 14/104/4 21/105/4 48/93/4
f 50/95/4 48/93/4 21/105/4
f 21/105/4 28/106/4 50/95/4
f 61/98/5 62/40/5 60/107/5
f 62/40/5 61/98/5 64/108/5
f 63/97/4 50/95/4 28/106/4
f 28/106/4 64/108/4 63/97/4
f 57/88/4 65/101/4 36/48/4
f 36/48/4 58/49/4 57/88/4
f 71/52/3 39/54/3 55/50/3
f 71/52/6 53/100/6 35/47/6
f 65/101/4 66/102/4 43/109/4
f 43/109/4 36/48/4 65/101/4
f 66/102/3 55/50/3 38/53/3
f 38/53/3 43/109/3 66/102/3
f 52/99/2 44/87/2 45/90/2
f 116/7/1 115/110/1 75/5/1
f 67/111/2 45/90/2 47/92/2
f 68/112/2 47/92/2 49/94/2
f 16/25/1 10/18/1 17/26/1
f 69/113/2 49/94/2 51/96/2
f 67/111/2 52/99/2 45/90/2
f 70/114/2 51/96/2 61/98/2
f 71/52/6 35/47/6 39/54/6
f 40/56/1 39/54/1 35/47/1
f 60/107/2 70/114/2 61/98/2
f 4/115/1 76/116/1 74/117/1
f 39/54/1 40/56/1 37/58/1
f 38/53/1 39/54/1 37/58/1
f 35/47/6 53/100/6 76/3/6
f 67/111/2 102/118/2 52/119/2
f 70/114/2 69/113/2 51/96/2
f 78/120/1 77/34/1 73/121/1
f 63/97/5 64/108/5 61/98/5
f 74/117/1 78/122/1 4/115/1
f 49/94/2 69/113/2 68/112/2
f 77/34/1 78/120/1 74/6/1
f 3/4/1 76/3/1 4/8/1
f 73/121/1 72/123/1 78/120/1
f 67/111/2 47/92/2 68/112/2
f 79/124/1 78/120/1 72/123/1
f 72/123/1 80/125/1 79/124/1
f 81/126/1 82/127/1 80/125/1
f 82/127/1 81/126/1 83/128/1
f 83/128/1 84/129/1 82/127/1
f 84/129/1 83/128/1 78/120/1
f 78/120/1 79/124/1 84/129/1
f 10/130/1 4/115/1 78/122/1
f 78/122/1 83/131/1 10/130/1
f 85/132/1 83/128/1 81/126/1
f 81/126/1 86/133/1 85/132/1
f 80/125/1 72/123/1 81/126/1
f 87/134/1 88/135/1 86/133/1
f 88/135/1 87/134/1 89/136/1
f 89/136/1 90/137/1 88/135/1
f 90/137/1 89/136/1 83/128/1
f 83/128/1 85/132/1 90/137/1
f 17/138/1 10/130/1 83/131/1
f 83/131/1 89/139/1 17/138/1
f 91/140/1 89/136/1 87/134/1
f 87/134/1 92/141/1 91/140/1
f 100/142/1 99/143/1 110/144/1
f 108/145/5 110/144/5 99/143/5
f 95/146/1 96/147/1 94/148/1
f 96/147/1 95/146/1 89/136/1
f 89/136/1 91/140/1 96/147/1
f 108/145/6 99/143/6 114/149/6
f 114/149/6 99/143/6 93/150/6
f 98/151/1 93/152/1 99/153/1
f 97/154/1 93/152/1 98/151/1
f 95/146/1 93/152/1 97/154/1
f 110/144/1 101/155/1 100/142/1
f 101/155/1 110/144/1 95/146/1
f 95/146/1 97/154/1 101/155/1
f 75/156/1 115/157/1 73/158/1
f 73/158/1 77/159/1 75/156/1
f 79/160/1 80/161/1 82/162/1
f 82/162/1 84/163/1 79/160/1
f 85/164/1 86/165/1 88/166/1
f 88/166/1 90/167/1 85/164/1
f 91/168/1 92/169/1 94/170/1
f 94/170/1 96/171/1 91/168/1
f 97/172/1 98/173/1 100/174/1
f 100/174/1 101/175/1 97/172/1
f 102/176/3 74/117/3 52/119/3
f 67/111/2 103/177/2 102/118/2
f 103/177/2 67/111/2 68/112/2
f 68/112/2 104/178/2 103/177/2
f 104/178/2 68/112/2 69/113/2
f 69/113/2 105/179/2 104/178/2
f 105/179/2 69/113/2 70/114/2
f 70/114/2 106/180/2 105/179/2
f 106/180/2 70/114/2 60/107/2
f 60/107/2 109/181/2 106/180/2
f 112/182/6 87/134/6 81/126/6
f 114/149/6 93/150/6 113/183/6
f 81/126/6 111/184/6 112/182/6
f 102/118/3 107/185/3 116/7/3
f 52/119/6 76/116/6 53/100/6
f 76/116/3 52/119/3 74/117/3
f 74/117/3 102/176/3 116/7/3
f 72/123/6 107/185/6 111/184/6
f 109/181/5 110/144/5 108/145/5
f 111/184/6 81/126/6 72/123/6
f 107/185/6 72/123/6 116/7/6
f 107/185/2 102/118/2 103/177/2
f 111/184/2 103/177/2 104/178/2
f 112/182/2 104/178/2 105/179/2
f 86/133/1 81/126/1 87/134/1
f 113/183/2 105/179/2 106/180/2
f 111/184/2 107/185/2 103/177/2
f 114/149/2 106/180/2 109/181/2
f 94/148/1 93/152/1 95/146/1
f 108/145/2 114/149/2 109/181/2
f 114/149/2 113/183/2 106/180/2
f 105/179/2 113/183/2 112/182/2
f 113/183/6 93/150/6 87/134/6
f 115/110/1 116/7/1 72/123/1
f 111/184/2 104/178/2 112/182/2
f 92/141/1 87/134/1 93/152/1
f 93/152/1 94/148/1 92/141/1
f 99/153/1 100/142/1 98/151/1
f 113/183/6 87/134/6 112/182/6
f 72/123/1 73/121/1 115/110/1
f 26/35/1 24/186/1 29/43/1
f 25/37/1 24/186/1 26/35/1
f 24/186/1 25/37/1 23/33/1
f 23/33/1 17/26/1 24/186/1
f 30/187/1 24/186/1 31/188/1
f 31/188/1 32/42/1 30/187/1
f 24/189/1 17/138/1 89/139/1
f 95/190/1 24/189/1 89/139/1
f 24/189/1 95/190/1 31/191/1
f 110/192/1 31/191/1 95/190/1
f 29/43/1 24/186/1 30/187/1
f 110/144/5 109/181/5 31/193/5
f 60/107/5 31/193/5 109/181/5
f 62/40/5 31/193/5 60/107/5
f 32/42/1 31/193/1 62/40/1
f 54/51/2 53/100/2 71/52/2
